<?xml version="1.0"?><svg xmlns="http://www.w3.org/2000/svg" xmlns:xlink="http://www.w3.org/1999/xlink" version="1.1" id="Layer_1" viewBox="0 0 52 52" style="enable-background:new 0 0 52 52;" xml:space="preserve"><g><path d="M32.3987465,7.3675418C25.8534203,0.4467491,14.9920874,0.2137081,8.1423979,6.6927371   C1.2693505,13.1946898,0.9666162,24.0755501,7.468081,30.9495735c6.2872109,6.6459236,16.6777382,7.2085419,23.6469727,1.1982422   l2.6123066,2.6123657l-0.8662109,0.8192749c-0.8300781,0.7861328-0.8667011,2.1015625-0.0810547,2.9335938l9.7133789,10.2685547   c1.4738808,1.5595131,3.9386139,1.6356049,5.5048828,0.1533203c1.5619965-1.4781952,1.6323967-3.9424477,0.152832-5.5048828   c-3.4583282-3.6561584-6.056076-6.4025002-9.7138672-10.2695313c-0.7861328-0.8310547-2.1025391-0.8681641-2.9326172-0.0810547   l-0.6871338,0.6497803l-2.6097412-2.6098022C38.6702461,24.4985828,38.7140579,14.04317,32.3987465,7.3675418z    M46.9671059,47.8450813c-0.9525452,0.9014587-2.4670143,0.8750191-3.3837891-0.0947266l-0.8215332-0.8684082l3.3862305-3.3862305   l0.9133301,0.9655762C47.9704437,45.4208984,47.9290352,46.9356918,46.9671059,47.8450813z M36.9304848,34.0120735   c0.1523438,0,0.3046875,0.0605469,0.4174805,0.1796875l7.769043,8.2138672l-3.3863525,3.3863525l-7.8607178-8.3092041   c-0.2177734-0.2314453-0.2075195-0.5957031,0.0224609-0.8134766l2.6425781-2.5   C36.6463051,34.0638313,36.7883949,34.0120735,36.9304848,34.0120735z M8.5579252,29.9183235   C2.6248193,23.6458626,2.9011865,13.7161741,9.1736479,7.7825809c6.2817144-5.9415121,16.1878586-5.6727095,22.1352539,0.6162105   c5.9100227,6.246336,5.6896172,16.0858192-0.5432129,22.0592041c-0.0583496,0.0328369-0.1185303,0.0620117-0.1682129,0.1116943   c-0.0313721,0.0313721-0.0460205,0.0712891-0.0706787,0.1063843C24.3230991,36.382267,14.536726,36.2404518,8.5579252,29.9183235z"/><path d="M28.9314594,10.6458616c-4.7568188-5.0301547-12.5933418-5.1367798-17.5097656-0.4853516   c-4.9666276,4.6958675-5.1847973,12.5415125-0.4873047,17.5087891c4.7507811,5.0226173,12.585928,5.1460342,17.5112305,0.4873047   C33.417141,23.4526939,33.6380157,15.6202393,28.9314594,10.6458616z M12.0242338,26.6380501   c-4.127552-4.3629799-3.9357872-11.2615967,0.4277344-15.3876963c4.3197756-4.0850959,11.2074118-3.9974413,15.3896475,0.4267578   c4.1350212,4.3683939,3.9448872,11.2549658-0.4272461,15.3896494   C23.0877209,31.1602116,16.2019234,31.0543251,12.0242338,26.6380501z"/><path d="M23.6760883,16.5931282l-2.4672852-0.0498047l0.9506836-3.6689463   c0.1430664-0.5517578-0.1142578-1.1113281-0.6254883-1.3632813c-0.5131836-0.25-1.1123047-0.1123047-1.4604492,0.3388672   l-5.1088858,6.5908213c-0.3759766,0.4863281-0.4418945,1.1308594-0.1708984,1.6816406   c0.2705078,0.5517578,0.8203125,0.8945313,1.4345694,0.8945313h2.0078125l-1.0253906,4.4580078   c-0.1259766,0.5488281,0.1416016,1.0996094,0.6503906,1.3388672c0.1645508,0.078125,0.3383789,0.1152344,0.5092773,0.1152344   c0.3583984,0,0.7055664-0.1640625,0.9375-0.4658203l5.6035156-7.2998047   c0.3691406-0.4814453,0.4350586-1.1191406,0.1723633-1.6650391C24.8211079,16.9515266,24.2815571,16.604847,23.6760883,16.5931282z    M23.7219868,18.2493782l-4.7265625,6.1572266l0.9135742-3.9716797c0.0512695-0.2226563-0.0019531-0.4560547-0.144043-0.6347656   c-0.1425781-0.1787109-0.3583984-0.2832031-0.5869141-0.2832031h-2.949707c-0.0185547,0-0.0610352,0-0.0878906-0.0546875   s-0.0004883-0.0888672,0.0102539-0.1035156l4.1743164-5.3857431l-0.8061523,3.1123056   c-0.0576172,0.2226563-0.0102539,0.4589844,0.128418,0.6416016s0.3530273,0.2919922,0.5825195,0.296875l3.4165039,0.0693359   c0.0180664,0,0.0600586,0.0009766,0.0859375,0.0546875C23.7581196,18.2025032,23.7317524,18.2366829,23.7219868,18.2493782z"/></g></svg>